<svg xmlns="http://www.w3.org/2000/svg" viewBox="0 0 235.8 47.4"><defs><style>.cls-1{fill:#fff;}.cls-2{fill:#09add1;}.cls-3{fill:#e9eeee;}</style></defs><title>logo</title><g id="Calque_2" data-name="Calque 2"><g id="Calque_1-2" data-name="Calque 1"><path class="cls-1" d="M169.24,39.27l-17.32.14-.25-31.68L169,7.59l0,3.95-12.39.1.06,8.31,8.93-.07c4,0,4,0,3.45,4.38l-12.34.1.08,10.48,12.42-.1Z"/><path class="cls-1" d="M234.48,11.34l-3.56,1.93c-.74-.64-1.36-1.28-2.07-1.78a5,5,0,0,0-6.78.82c-1.45,2-1,4.18,1.59,5.93,2.22,1.49,4.72,2.56,7,3.91,4.56,2.64,5.93,5.9,4.64,10.83-1.11,4.25-4.77,6.68-10.13,6.71s-8.43-2.11-9.82-7L219,30.93c1.39,2.66,3.39,4.28,6.4,4.21,2.34-.06,4.27-.89,5-3.3a4.37,4.37,0,0,0-2.19-5.29c-2.14-1.31-4.44-2.35-6.6-3.61-5.06-2.94-6.73-6.79-5-11.3,1.52-4,6.46-6.22,11.55-5.21A7.8,7.8,0,0,1,234.48,11.34Z"/><path class="cls-1" d="M207.43,31.73l3.56,2c-2.6,5.42-8.61,7.67-14.41,5.53-4.86-1.79-7.54-7.5-6.16-13.14s6.26-9,12.35-8.2c5.64.75,8.74,4.74,8.56,11.4L195,29.41c.06,3.05,1.13,5.21,3.68,6C202.34,36.5,205.36,35.19,207.43,31.73Zm-1-5.44c-.65-3.4-2.66-4.94-5.88-4.72-3,.2-4.79,1.87-5,4.8Z"/><path class="cls-1" d="M106,40.64a11.23,11.23,0,0,1-11.31-11,11.32,11.32,0,0,1,22.64.09A11.05,11.05,0,0,1,106,40.64Zm6.49-11.12c-.07-4-2.93-6.95-6.7-6.83a6.84,6.84,0,0,0-6.3,7.06,6.75,6.75,0,0,0,6.81,6.82C109.92,36.45,112.55,33.45,112.49,29.52Z"/><path class="cls-1" d="M63.3,40c-4.58.55-4.57.55-4.62-3.57,0-2.87,0-5.75-.17-8.62C58.32,24.17,57,22.74,54,22.76c-3.38,0-5.75,2.1-5.87,5.38-.12,3.5,0,7,0,10.5,0,.44-.07.88-.12,1.52l-4.36,0L43.45,19.9l3.94,0,.38,3A9.9,9.9,0,0,1,56.12,19c4.6.16,7,2.36,7.05,7S63.26,35.24,63.3,40Z"/><path class="cls-1" d="M74.63,40l-4.55,0-.17-20.34,3.89,0,.38,2.82c2.46-2.56,5.16-4,8.59-3.75,4.41.28,6.75,2.49,6.84,6.93.09,4.66.08,9.31.12,13.92-4.3,1.12-4.57.91-4.62-3.31,0-3,0-5.92-.19-8.88-.2-3.45-1.56-4.84-4.47-4.86-3.23,0-5.79,2-5.89,5C74.44,31.61,74.59,35.65,74.63,40Z"/><path class="cls-1" d="M31.1,7.74h4.71c.07.94.19,1.87.19,2.81q0,12.51,0,25C36,40,36,40,31.1,39.39Z"/><path class="cls-1" d="M119.19,19.44c3.61-1.19,5.37,0,6.43,3.13,1.14,3.38,2.79,6.58,4.29,10,1.39-3.36,2.73-6.61,4.08-9.85,1.65-3.95,1.65-3.95,6.49-3.74C137,26.23,133.62,33.25,130,40.8Z"/><path class="cls-1" d="M187.09,22.44c-5-1.22-7.05.2-7.3,5.32-.17,3.73,0,7.48.06,11.38l-4.47,0-.17-20.4,4.28,0c.09.74.18,1.51.28,2.37,3-3.46,4.57-3.88,8.7-2.26Z"/><path class="cls-1" d="M145.5,8.6l.09,11.56-3.1,0c0-3.55-.17-7.1,0-10.64,0-.62,1.5-1.17,2.31-1.75Z"/><path class="cls-1" d="M1.65,25.11l-1,.07c-.21-.1-.52.13-.66-.19,1.76-.3,3.47-.81,5.2-1.23.11,0,.19-.16.34-.29-.15-.6-.3-1.22-.46-1.84,0-.05,0-.1,0-.16a16.94,16.94,0,0,1-.19-4.66,14.71,14.71,0,0,1,.75-3.49c.19-.53.44-1,.64-1.54A13,13,0,0,1,7,10.25,18.16,18.16,0,0,1,9,7.41c.82-.94,1.67-1.85,2.53-2.75.41-.42.91-.77,1.34-1.18a26.45,26.45,0,0,1,2.93-2.35c.46-.32.94-.61,1.4-.92l.13-.09L17.61,0V.22c-.23.25-.44.51-.68.74-.45.43-.94.81-1.38,1.25s-.61.76-.94,1.13-.76.71-1.08,1.11A20.7,20.7,0,0,0,12.2,6.21c-.58.85-1.15,1.72-1.66,2.62a19.55,19.55,0,0,0-1,2.28c-.24.6-.41,1.22-.6,1.83a6,6,0,0,0-.22.8c-.1.51-.14,1-.27,1.53a16.88,16.88,0,0,0-.27,4.14c0,.87,0,1.74.1,2.62a2,2,0,0,0,.21.51L9.81,22a5.09,5.09,0,0,1,.92-.43,8.2,8.2,0,0,0,1.7-.92,7.15,7.15,0,0,0,1-.71c.19-.14.36-.31.54-.46a10.38,10.38,0,0,0,2-1.84A3.14,3.14,0,0,0,17,15.19a2,2,0,0,0-1.25-1.69,4.19,4.19,0,0,1-.94-.61c.31,0,.61,0,.92,0s.47.07.71.1a6.93,6.93,0,0,1,2.49.71A2.06,2.06,0,0,1,20,15.2,2.48,2.48,0,0,1,19.54,17,10.4,10.4,0,0,1,18.72,18c.29.1.56.23.85.3.44.11.9.13,1.33.27a2.89,2.89,0,0,1,1.88,1.65,1.89,1.89,0,0,1-.21,1.37,5.35,5.35,0,0,1-1.26,1.71,8.19,8.19,0,0,1-1.67,1.37c-1.17.74-2.38,1.41-3.58,2.1a.83.83,0,0,1-.27.07l-.38.2c-.73.3-1.46.58-2.18.9a1.67,1.67,0,0,1-.87.23c-.19,0-.24.13-.28.28-.22,0-.49-.17-.63.16l-.23,0c-.19,0-.36,0-.44.2h0c-.24,0-.52-.1-.67.21l-.3,0c.45,1.73.92,3.42,1.39,5.11l-.12.06c-.34-.49-.69-1-1-1.45-.48-.74-.92-1.48-1.38-2.23-.17-.27-.34-.55-.5-.83,0-.07-.1-.2-.13-.19a5.62,5.62,0,0,0-.53.19l-.45,0-.46.15L6,30l-.68.17-.78.06c-.28,0-.58-.07-.75.25a2.56,2.56,0,0,0-1.26,0L2,30.42c-.15,0-.17-.1-.12-.22a7.69,7.69,0,0,0,2.38-.37A4.05,4.05,0,0,1,5,29.74c.19-.06.46.14.57-.18l1.45-.42c.22-.06.44-.07.73-.12a3.58,3.58,0,0,0-.15-.43,23.31,23.31,0,0,1-1.48-3.4,8.29,8.29,0,0,0-.32-.8,7.75,7.75,0,0,0-1.15.16A10.73,10.73,0,0,1,2.23,25C2,25,1.79,24.86,1.65,25.11Zm9.06-2.39-2.12.73c-.07,0-.09.15-.1.18a36.14,36.14,0,0,0,1.12,4.75l1.74-.69a1.73,1.73,0,0,0,.31-.22,7.33,7.33,0,0,0,1.81-.74,16.22,16.22,0,0,0,1.47-.82,4.35,4.35,0,0,0,.43-.32,1.7,1.7,0,0,1,.22-.15,12.09,12.09,0,0,0,2.94-2.33,5.62,5.62,0,0,0,1.07-1.56,2,2,0,0,0,.1-1.67,2.8,2.8,0,0,0-1.29-1.3.38.38,0,0,0-.36,0c-.24.14-.46.33-.68.49-.41.29-.8.59-1.22.86-.63.41-1.27.79-1.91,1.18a12.47,12.47,0,0,0-1.49.66C12.1,22.18,11.37,22.36,10.71,22.72Z"/><path class="cls-1" d="M12.08,28.46c0-.15.09-.29.28-.28a1.67,1.67,0,0,0,.87-.23c.72-.32,1.45-.6,2.18-.9l.38-.2c.09.31.2.61.27.92s.14.71.2,1.07a10.1,10.1,0,0,0,.28,2.33c0,.06.1.1.15.15,0,1.3,0,2.6,0,3.91a17.69,17.69,0,0,1-.36,2.16c-.1.7-.45,1.3-.58,2a5.43,5.43,0,0,1-.68,1.47c-.37.72-.76,1.42-1.16,2.12a5.9,5.9,0,0,1-.43.59,11.21,11.21,0,0,0-.71,1c-.19.34-.59.51-.65.93-.38,0-.42.42-.69.55s-.21.28-.22.46h0c-.15,0-.27,0-.24.22l0,0,0,0c-.17,0-.23.07-.22.23l0,0,0,0a.47.47,0,0,0-.45.45l0,0,0,0-.53,0L9.88,47l.26-.43.12-.34c.1-.23.21-.45.31-.67s.07-.27.11-.4c.42-.19.42-.59.5-1l0-.23a.85.85,0,0,0,.41-.89l0-.24a2.26,2.26,0,0,0,.46-1.44,10.68,10.68,0,0,1,.3-1.88,5.47,5.47,0,0,0,.18-1.84c0-1.77,0-3.55,0-5.33a8.76,8.76,0,0,0-.27-2.22s-.1-.08-.16-.12l0-.46Z"/><path class="cls-1" d="M14,19.48c-.18.15-.35.32-.54.46a7.15,7.15,0,0,1-1,.71,8.2,8.2,0,0,1-1.7.92,5.09,5.09,0,0,0-.92.43l.46-.45a6.91,6.91,0,0,0-.21-2.23,1.29,1.29,0,0,1,0-.44V17a1.49,1.49,0,0,1,.16-.92.87.87,0,0,0,0-.43,4.33,4.33,0,0,1,.44-2.19c-.1-.73.51-1.23.6-1.91a.43.43,0,0,1,.06-.2,1.76,1.76,0,0,0,.42-.95l.27-.09.64-1.17-.05,0,1.74-2.36c.24-.07.44-.18.46-.47v0c.27,0,.47-.17.45-.49h0a.48.48,0,0,0,.44-.45h0c.31,0,.45-.21.55-.47l.08-.3.81-.36h0l-.08.58a.47.47,0,0,0-.45.38c-.07.22-.36.33-.48.61a5.32,5.32,0,0,1-.74,1,.27.27,0,0,0-.07.14c-.05.62-.62,1-.74,1.57a2.43,2.43,0,0,1-.23.53,8.87,8.87,0,0,0-.39.89,8.27,8.27,0,0,1-.38,1.26,2.89,2.89,0,0,0-.15,1,41.4,41.4,0,0,0,.09,5.57,5.82,5.82,0,0,0,.2.68C13.82,18.73,13.9,19.11,14,19.48Z"/><path class="cls-2" d="M17.36,3.91l-.22.22h0l.21-.23Z"/><path class="cls-3" d="M17.36,3.91l.22-.24,0,0-.24.21Z"/><path class="cls-1" d="M14.24,21.12a15.78,15.78,0,0,0,.61,2.24c.13.64.32,1.27.48,1.9,0,.11,0,.22,0,.33a4.35,4.35,0,0,1-.43.32,16.22,16.22,0,0,1-1.47.82,7.33,7.33,0,0,1-1.81.74,2.83,2.83,0,0,0-.24-1.34,2.72,2.72,0,0,1-.24-1.29.82.82,0,0,0,0-.22,7.31,7.31,0,0,1-.45-1.9c.66-.36,1.39-.54,2-.94A12.47,12.47,0,0,1,14.24,21.12Z"/></g></g></svg>