<svg xmlns="http://www.w3.org/2000/svg" viewBox="0 0 186.62 145.91"><defs><style>.cls-1{fill:#0d3671;}.cls-2{fill:#e9eeee;}.cls-3{fill:#09add1;}</style></defs><title>logo couleur</title><g id="Calque_2" data-name="Calque 2"><g id="Calque_1-2" data-name="Calque 1"><path class="cls-1" d="M89.9,145.91c-.32-.7-.61-1.4-1-2.09q-1.26-2.59-2.54-5.19c-1.34-2.75-2.65-5.51-4-8.25-.72-1.47-1.49-2.91-2.31-4.5,1.61-.24,3.14,0,4.79-.14l5.23,12.14,5.12-12H100c-1.13,2.41-2.18,4.76-3.33,7-1.55,3.09-3.18,6.13-4.76,9.2-.53,1-1,2.1-1.52,3.16a1.87,1.87,0,0,0,0,.67Z"/><path class="cls-2" d="M174.86,145.91v-.43h4.33v.43Z"/><path class="cls-2" d="M156.62,145.48v.43h-3.36v-.42Z"/><path class="cls-2" d="M66.86,145.91v-.43h2.89v.42Z"/><path class="cls-1" d="M68.87,53.89l-2.13.16c-.44-.21-1.1.29-1.4-.42C69.12,53,72.78,51.91,76.5,51c.23,0,.41-.35.72-.63-.32-1.29-.64-2.62-1-4a3.37,3.37,0,0,1-.09-.34,36.48,36.48,0,0,1-.42-10,32,32,0,0,1,1.61-7.49c.41-1.14,1-2.2,1.39-3.31A25.28,25.28,0,0,1,80.41,22a37.68,37.68,0,0,1,4.3-6.1c1.75-2,3.56-4,5.42-5.9.88-.92,2-1.66,2.87-2.54a58.69,58.69,0,0,1,6.3-5c1-.7,2-1.32,3-2l.28-.18.56-.27,0,.46c-.48.54-.93,1.11-1.45,1.6-1,.92-2,1.74-3,2.69-.73.74-1.32,1.63-2,2.41s-1.61,1.54-2.32,2.4c-1,1.2-1.94,2.46-2.82,3.76C90.29,15.16,89.05,17,88,19a41.85,41.85,0,0,0-2.25,4.91c-.52,1.27-.88,2.61-1.3,3.93a16.61,16.61,0,0,0-.47,1.71c-.21,1.09-.3,2.2-.58,3.27-.78,2.93-.52,5.92-.58,8.89,0,1.87.1,3.75.22,5.62a3.81,3.81,0,0,0,.46,1.1l2.94-1.16a11,11,0,0,1,2-.93c1.4-.35,2.43-1.32,3.66-2a17.11,17.11,0,0,0,2.18-1.53c.41-.3.77-.65,1.16-1a23.25,23.25,0,0,0,4.34-4,6.7,6.7,0,0,0,2-5.27A4.26,4.26,0,0,0,99.06,29a8.6,8.6,0,0,1-2-1.31c.66,0,1.32.05,2,.11s1,.15,1.53.22a14.89,14.89,0,0,1,5.35,1.53,4.39,4.39,0,0,1,2.43,3.1,5.23,5.23,0,0,1-1,3.78,22.68,22.68,0,0,1-1.77,2.27,18,18,0,0,0,1.83.63c.94.23,1.93.28,2.84.59a6.18,6.18,0,0,1,4,3.53c.41,1-.11,2-.46,2.95A11.36,11.36,0,0,1,111.09,50,18.44,18.44,0,0,1,107.51,53c-2.51,1.59-5.13,3-7.7,4.51a2.25,2.25,0,0,1-.58.15,8.89,8.89,0,0,1-.81.42c-1.56.65-3.14,1.26-4.69,1.94a3.67,3.67,0,0,1-1.85.5c-.43,0-.53.27-.62.58-.47,0-1.05-.35-1.34.36l-.5.05c-.4-.05-.77,0-.94.43h0c-.51.06-1.13-.21-1.44.47l-.65,0c1,3.71,2,7.34,3,11l-.26.12c-.72-1-1.47-2.06-2.16-3.12-1-1.57-2-3.18-3-4.77-.37-.59-.72-1.2-1.08-1.8-.09-.14-.21-.41-.26-.4-.39.11-.77.27-1.15.41l-1,.09-1,.32-1.41.16-1.46.35L75,64.89c-.61,0-1.25-.15-1.62.54a5.33,5.33,0,0,0-2.69,0c-.37-.06-.74-.13-1.11-.18s-.35-.22-.24-.47A16.45,16.45,0,0,0,74.47,64a12.77,12.77,0,0,1,1.66-.19c.41-.12,1,.3,1.22-.38,1-.3,2.08-.62,3.13-.9.46-.12.94-.15,1.56-.25-.12-.35-.19-.65-.32-.94a49.18,49.18,0,0,1-3.18-7.29c-.15-.53-.41-1-.69-1.71a15.42,15.42,0,0,0-2.47.34,23.62,23.62,0,0,1-5.27.89C69.67,53.59,69.18,53.36,68.87,53.89Zm19.46-5.12c-1.52.52-3,1-4.56,1.57-.14,0-.19.33-.22.39A81.87,81.87,0,0,0,86,60.92c1.35-.53,2.55-1,3.75-1.49a3.57,3.57,0,0,0,.66-.46,15.49,15.49,0,0,0,3.88-1.6,32.56,32.56,0,0,0,3.16-1.76,9.91,9.91,0,0,0,.92-.68,3.64,3.64,0,0,1,.48-.32,26.16,26.16,0,0,0,6.31-5,12,12,0,0,0,2.29-3.35,4.31,4.31,0,0,0,.22-3.59,6.16,6.16,0,0,0-2.76-2.79.94.94,0,0,0-.8,0c-.51.3-1,.71-1.45,1.06-.87.62-1.72,1.26-2.62,1.84-1.35.87-2.73,1.69-4.1,2.53a26.33,26.33,0,0,0-3.2,1.42C91.32,47.62,89.74,48,88.33,48.77Z"/><path class="cls-1" d="M109.64,144.86V115.47c5.52,0,10.93,0,16.42,0v4.12c-.42,0-.81.06-1.19.06-3,0-5.92,0-8.88,0-.5,0-1,.1-1.54.15v7H126a27.9,27.9,0,0,1,.08,4.38H114.47v9.35h11.59v4.38Z"/><path class="cls-3" d="M91.26,61.08c.09-.31.19-.62.62-.58a3.67,3.67,0,0,0,1.85-.5c1.55-.68,3.13-1.29,4.69-1.94a8.89,8.89,0,0,0,.81-.42c.2.65.43,1.31.59,2s.28,1.52.42,2.29a21.71,21.71,0,0,0,.59,5c0,.11.22.21.33.31,0,2.8,0,5.59,0,8.39a38.07,38.07,0,0,1-.78,4.64c-.21,1.51-1,2.8-1.24,4.26a12.15,12.15,0,0,1-1.45,3.16c-.8,1.53-1.64,3-2.5,4.54a12.29,12.29,0,0,1-.91,1.27,19.75,19.75,0,0,0-1.53,2.13c-.41.71-1.27,1.09-1.41,2-.8,0-.89.91-1.47,1.19s-.46.6-.47,1h0c-.32,0-.56.06-.5.47l.07,0-.07-.06c-.38,0-.5.15-.48.49l.06.06,0-.06a1,1,0,0,0-1,1l.06,0,0-.06-1.15.07.25-1,.57-.92c.09-.25.16-.5.26-.74.21-.48.45-.95.65-1.44a8.42,8.42,0,0,0,.24-.86c.9-.4.91-1.26,1.07-2l.06-.49a1.85,1.85,0,0,0,.87-1.92l0-.49a4.94,4.94,0,0,0,1-3.1,22.29,22.29,0,0,1,.65-4,12.13,12.13,0,0,0,.39-4c0-3.82,0-7.64-.08-11.46.31-1.64-.48-3.16-.57-4.75,0-.1-.23-.18-.35-.26l0-1Z"/><path class="cls-1" d="M179.18,145.48h-4.33a8.16,8.16,0,0,1-7.23-6.47c.4-.21.84-.47,1.3-.69.63-.29,1.27-.55,1.91-.82a.67.67,0,0,1,1,.45,4.58,4.58,0,0,0,4.7,3.07,5.37,5.37,0,0,0,2.88-.42c2.15-1.22,2.89-3.41,1.62-5.45a6.06,6.06,0,0,0-2.31-2.06c-2.25-1.25-4.52-2.49-6.72-3.83a6.8,6.8,0,0,1-2.9-3.12,8.19,8.19,0,0,1-.36-5.51,7.36,7.36,0,0,1,4.05-4.82,7.14,7.14,0,0,1,2.53-.81,16.71,16.71,0,0,1,4.06,0,7.48,7.48,0,0,1,6.15,4.2,2,2,0,0,1,.07.56,20.41,20.41,0,0,1-3.67,1.78c-.34-.39-.6-.74-.9-1a4.77,4.77,0,0,0-6.37-.45,2.1,2.1,0,0,0-.87,1.47,4.16,4.16,0,0,0,2.35,4.72c1.88,1,3.82,1.95,5.67,3a9.92,9.92,0,0,1,3.47,3,6.59,6.59,0,0,1,1.31,3.54c0,.6,0,1.2,0,1.8a8.11,8.11,0,0,1-2.55,5.61A8.73,8.73,0,0,1,179.18,145.48Z"/><path class="cls-1" d="M156.62,145.48h-3.37a8.45,8.45,0,0,1-6-3,9.52,9.52,0,0,1-2-3.71,13.6,13.6,0,0,1-.37-4.69,9,9,0,0,1,3-6.41,9.67,9.67,0,0,1,4.2-2.31,21.43,21.43,0,0,1,3.22-.18,8.5,8.5,0,0,1,8,4.52,10.9,10.9,0,0,1,1,6.28H149.27a20.88,20.88,0,0,0,.71,2.52,4.59,4.59,0,0,0,4.36,2.92,6,6,0,0,0,5.76-2.95c.39-.62.62-.66,1.28-.29l2.56,1.47c.39.76-.27,1.25-.63,1.73a11.18,11.18,0,0,1-5.16,3.82A7.63,7.63,0,0,1,156.62,145.48ZM160,133.07c-.34-1.67-1-3-2.45-3.66a5.48,5.48,0,0,0-4.46-.32,5,5,0,0,0-3.06,2.78,5.1,5.1,0,0,0-.2,1.2Z"/><path class="cls-1" d="M69.74,145.49H66.85a10,10,0,0,1-6.49-3.65,8.53,8.53,0,0,1-2.19-4.33,13,13,0,0,1,0-4.27,9.25,9.25,0,0,1,4.12-6.09,12.77,12.77,0,0,1,2.82-1.46,11.66,11.66,0,0,1,5.17-.34,9.85,9.85,0,0,1,4.28,1.8,11.68,11.68,0,0,1,3.4,4,3.45,3.45,0,0,1,.5,1.3c.19,1.47.9,2.9.26,4.44-.27.64-.35,1.36-.56,2a9.42,9.42,0,0,1-5,5.54A6.88,6.88,0,0,1,69.74,145.49Zm4.38-10.26a5.25,5.25,0,0,0-1.05-3.61,5.66,5.66,0,0,0-8-1.37,5.92,5.92,0,0,0-2.35,4.29,6.76,6.76,0,0,0,1.12,4.79,5.76,5.76,0,0,0,7.87,1.24A6,6,0,0,0,74.12,135.23Z"/><path class="cls-1" d="M53.45,144.86H49.14V143.4c0-3.52,0-7.05-.08-10.56a3.51,3.51,0,0,0-1.64-3.32,4.45,4.45,0,0,0-1.47-.43,5.27,5.27,0,0,0-5.45,2.07,4.41,4.41,0,0,0-.76,2.53q0,4.74,0,9.48v1.72l-2.16,0H35.34V125.85h4.11c.25.79-.1,1.58.35,2.38a16.05,16.05,0,0,1,1.42-1.35,6.72,6.72,0,0,1,4.5-1.63c.8,0,1.6,0,2.4,0,2.52.13,5.41,2.28,5.38,5.27,0,4.56,0,9.12,0,13.68A4,4,0,0,1,53.45,144.86Z"/><path class="cls-1" d="M11.32,125.85h4.26v2.44c.83-.69,1.5-1.19,2.09-1.78a5.86,5.86,0,0,1,2.83-1.18,20.5,20.5,0,0,1,4.07,0c2.25.34,4.9,2.17,4.87,5.18-.05,4.48,0,9,0,13.44,0,.27,0,.55-.07.9H25.12c0-.55-.1-1.06-.11-1.56,0-3.44,0-6.88-.08-10.31a5.88,5.88,0,0,0-.56-2.42,2.64,2.64,0,0,0-1.47-1.26c-2.16-.6-4.21-.49-5.93,1.28a4.31,4.31,0,0,0-1.24,3.06c-.06,3.16,0,6.32,0,9.47,0,.56,0,1.11,0,1.74H11.41C11.15,144,11.06,127.86,11.32,125.85Z"/><path class="cls-3" d="M95.37,41.82c-.39.33-.75.68-1.16,1A17.11,17.11,0,0,1,92,44.33c-1.23.64-2.26,1.61-3.66,2a11,11,0,0,0-2,.93l1-1c-.17-1.49.26-3.17-.44-4.79a2.48,2.48,0,0,1,0-.95c0-1.36,0-2.72,0-4.08a3.28,3.28,0,0,1,.33-2c.16-.23.09-.62.11-.94.06-1.61,0-3.24.93-4.69-.21-1.56,1.11-2.65,1.29-4.09a1,1,0,0,1,.12-.45,3.7,3.7,0,0,0,.91-2l.57-.18,1.39-2.52-.12-.06,3.74-5.07c.52-.16,1-.39,1-1v-.1c.58-.12,1-.38,1-1.06h0a1.08,1.08,0,0,0,1-1h0c.67,0,1-.46,1.17-1l.18-.64,1.73-.79,0,0L102,10.1a1.06,1.06,0,0,0-1,.82c-.15.48-.78.73-1,1.32a11.34,11.34,0,0,1-1.58,2.12.66.66,0,0,0-.16.31c-.1,1.32-1.34,2.09-1.58,3.35a5.81,5.81,0,0,1-.5,1.15,16.81,16.81,0,0,0-.83,1.9,19.14,19.14,0,0,1-.82,2.71A6.22,6.22,0,0,0,94.17,26a86.8,86.8,0,0,0,.18,12,10,10,0,0,0,.45,1.44C95,40.2,95.18,41,95.37,41.82Z"/><path class="cls-1" d="M4.79,144.86H0V115.52H4.79Z"/><path class="cls-1" d="M143.77,126.1l-1.47,3.58c-.81-.18-1.59-.41-2.39-.53a3.52,3.52,0,0,0-4,3.13c-.67,3.6-.32,7.22-.42,10.83,0,.55,0,1.11,0,1.74h-4.27v-19h4.29v2.49c.57-.72,1-1.26,1.45-1.8a3.47,3.47,0,0,1,2.71-1.27A7,7,0,0,1,143.77,126.1Z"/><path class="cls-1" d="M104.78,127.15h-3.4V116.08h3.4Z"/><path class="cls-3" d="M65.34,53.63c.3.71,1,.21,1.4.42-.68.59-1.54.42-2.31.48a24.68,24.68,0,0,1-3.09-.15l-.44,0A25.58,25.58,0,0,1,65.34,53.63Z"/><path class="cls-2" d="M101.16,67.23c-.11-.1-.31-.2-.33-.31a21.71,21.71,0,0,1-.59-5l.92.63Z"/><path class="cls-2" d="M69.36,64.83c-.11.25-.08.43.24.47s.74.12,1.11.18c-.3.17-.59.47-.89.48-1.11.06-2.22,0-3.37,0C66.83,65.06,67.71,64.74,69.36,64.83Z"/><path class="cls-2" d="M91.33,64.34c.12.08.35.16.35.26.09,1.59.88,3.11.57,4.75a3.24,3.24,0,0,1-.91-1.81C91.33,66.47,91.33,65.4,91.33,64.34Z"/><path class="cls-2" d="M91.26,61.08l0,2.27c-.66-.22-.75-.84-.89-1.38-.08-.31-.11-.54-.48-.53C90.21,60.73,90.79,61.09,91.26,61.08Z"/><path class="cls-2" d="M89.36,99.78c0-.39,0-.78.47-1s.67-1.18,1.47-1.19V99l-.81-.08-.23.84Z"/><path class="cls-2" d="M91.29,88.79a4.94,4.94,0,0,1-1,3.1,4.18,4.18,0,0,1,.56-3C90.91,88.84,91.15,88.84,91.29,88.79Z"/><path class="cls-2" d="M86.29,101.75l1.15-.07v1H85.66l-.13-.2Z"/><path class="cls-2" d="M90.26,92.38a1.85,1.85,0,0,1-.87,1.92C89.23,93.21,89.48,92.66,90.26,92.38Z"/><path class="cls-2" d="M89.33,94.79c-.16.78-.17,1.64-1.07,2,.07-.49.13-1,.2-1.47S88.91,94.77,89.33,94.79Z"/><path class="cls-2" d="M73.4,65.43c.37-.69,1-.58,1.62-.54C74.67,65.64,74,65.55,73.4,65.43Z"/><path class="cls-2" d="M87.43,101.69a1,1,0,0,1,1-1v1Z"/><path class="cls-3" d="M68.87,53.89c.31-.53.8-.3,1.24-.3A1,1,0,0,1,68.87,53.89Z"/><path class="cls-2" d="M81.5,63.84c.38-.14.76-.3,1.15-.41,0,0,.17.26.26.4-.34.06-.68.14-1,.17C81.76,64,81.63,63.9,81.5,63.84Z"/><path class="cls-3" d="M77.35,63.45c-.23.68-.81.26-1.22.38C76.37,63.18,76.91,63.47,77.35,63.45Z"/><path class="cls-2" d="M87,62.39c.31-.68.93-.41,1.44-.47-.13.16-.24.41-.4.44A5.13,5.13,0,0,1,87,62.39Z"/><path class="cls-2" d="M76.68,64.76l1.46-.35A1.23,1.23,0,0,1,76.68,64.76Z"/><path class="cls-2" d="M79.55,64.25l1-.32C80.15,64.52,80,64.58,79.55,64.25Z"/><path class="cls-2" d="M88.48,61.92c.17-.45.54-.48.94-.43C89.34,62.15,88.82,61.84,88.48,61.92Z"/><path class="cls-2" d="M87.11,99.87l-.57.92C86.61,100.41,86.28,99.78,87.11,99.87Z"/><path class="cls-2" d="M88.87,100.25c-.06-.41.18-.48.5-.47C89.45,100.2,89.29,100.36,88.87,100.25Z"/><path class="cls-2" d="M88.39,100.73c0-.34.1-.54.48-.49C89,100.67,88.82,100.83,88.39,100.73Z"/><path class="cls-2" d="M95.9,45.34c1.37-.84,2.75-1.66,4.1-2.53.9-.58,1.75-1.22,2.62-1.84.48-.35.94-.76,1.45-1.06a.94.94,0,0,1,.8,0,6.16,6.16,0,0,1,2.76,2.79,4.31,4.31,0,0,1-.22,3.59,12,12,0,0,1-2.29,3.35,26.16,26.16,0,0,1-6.31,5,3.64,3.64,0,0,0-.48.32c0-.24,0-.48-.09-.71-.34-1.36-.74-2.71-1-4.08C96.89,48.51,96,47,95.9,45.34Z"/><path class="cls-3" d="M95.9,45.34c.1,1.69,1,3.17,1.32,4.8.28,1.37.68,2.72,1,4.08.05.23.06.47.09.71a9.91,9.91,0,0,1-.92.68,32.56,32.56,0,0,1-3.16,1.76A15.49,15.49,0,0,1,90.37,59a6.55,6.55,0,0,0-.51-2.89,5.74,5.74,0,0,1-.53-2.75,1.54,1.54,0,0,0,0-.48,16.28,16.28,0,0,1-1-4.08c1.41-.77,3-1.15,4.37-2A26.33,26.33,0,0,1,95.9,45.34Z"/><path class="cls-2" d="M88.33,48.77a16.28,16.28,0,0,0,1,4.08,1.54,1.54,0,0,1,0,.48,5.74,5.74,0,0,0,.53,2.75A6.55,6.55,0,0,1,90.37,59a3.57,3.57,0,0,1-.66.46c-1.2.49-2.4,1-3.75,1.49a81.87,81.87,0,0,1-2.41-10.19c0-.06.08-.34.22-.39C85.28,49.79,86.81,49.29,88.33,48.77Z"/><path class="cls-2" d="M160,133.07H149.79a5.1,5.1,0,0,1,.2-1.2,5,5,0,0,1,3.06-2.78,5.48,5.48,0,0,1,4.46.32C159,130.08,159.62,131.4,160,133.07Z"/><path class="cls-2" d="M74.12,135.23a6,6,0,0,1-2.45,5.34,5.76,5.76,0,0,1-7.87-1.24,6.76,6.76,0,0,1-1.12-4.79A5.92,5.92,0,0,1,65,130.25a5.66,5.66,0,0,1,8,1.37A5.25,5.25,0,0,1,74.12,135.23Z"/></g></g></svg>